<svg width="316" height="305" viewBox="0 0 316 305" fill="none" xmlns="http://www.w3.org/2000/svg">
<mask id="path-1-outside-1_5_727" maskUnits="userSpaceOnUse" x="0" y="0" width="316" height="305" fill="black">
<rect fill="white" width="316" height="305"/>
<path d="M4 277.472C4 273.035 4.96 269.088 6.88 265.632C8.8 262.133 11.4667 259.424 14.88 257.504C18.336 255.541 22.24 254.56 26.592 254.56C31.9253 254.56 36.4907 255.968 40.288 258.784C44.0853 261.6 46.624 265.44 47.904 270.304H35.872C34.976 268.427 33.696 266.997 32.032 266.016C30.4107 265.035 28.5547 264.544 26.464 264.544C23.0933 264.544 20.3627 265.717 18.272 268.064C16.1813 270.411 15.136 273.547 15.136 277.472C15.136 281.397 16.1813 284.533 18.272 286.88C20.3627 289.227 23.0933 290.4 26.464 290.4C28.5547 290.4 30.4107 289.909 32.032 288.928C33.696 287.947 34.976 286.517 35.872 284.64H47.904C46.624 289.504 44.0853 293.344 40.288 296.16C36.4907 298.933 31.9253 300.32 26.592 300.32C22.24 300.32 18.336 299.36 14.88 297.44C11.4667 295.477 8.8 292.768 6.88 289.312C4.96 285.856 4 281.909 4 277.472Z"/>
<path d="M75.854 300.448C71.63 300.448 67.7473 299.467 64.206 297.504C60.7073 295.541 57.9127 292.811 55.822 289.312C53.774 285.771 52.75 281.803 52.75 277.408C52.75 273.013 53.774 269.067 55.822 265.568C57.9127 262.069 60.7073 259.339 64.206 257.376C67.7473 255.413 71.63 254.432 75.854 254.432C80.078 254.432 83.9393 255.413 87.438 257.376C90.9793 259.339 93.7527 262.069 95.758 265.568C97.806 269.067 98.83 273.013 98.83 277.408C98.83 281.803 97.806 285.771 95.758 289.312C93.71 292.811 90.9367 295.541 87.438 297.504C83.9393 299.467 80.078 300.448 75.854 300.448ZM75.854 290.464C79.438 290.464 82.2967 289.269 84.43 286.88C86.606 284.491 87.694 281.333 87.694 277.408C87.694 273.44 86.606 270.283 84.43 267.936C82.2967 265.547 79.438 264.352 75.854 264.352C72.2273 264.352 69.326 265.525 67.15 267.872C65.0167 270.219 63.95 273.397 63.95 277.408C63.95 281.376 65.0167 284.555 67.15 286.944C69.326 289.291 72.2273 290.464 75.854 290.464Z"/>
<path d="M121.751 255.072C126.487 255.072 130.625 256.011 134.167 257.888C137.708 259.765 140.439 262.411 142.359 265.824C144.321 269.195 145.303 273.099 145.303 277.536C145.303 281.931 144.321 285.835 142.359 289.248C140.439 292.661 137.686 295.307 134.102 297.184C130.561 299.061 126.444 300 121.751 300H104.919V255.072H121.751ZM121.047 290.528C125.185 290.528 128.407 289.397 130.711 287.136C133.015 284.875 134.167 281.675 134.167 277.536C134.167 273.397 133.015 270.176 130.711 267.872C128.407 265.568 125.185 264.416 121.047 264.416H115.863V290.528H121.047Z"/>
<path d="M183.738 255.072V263.84H171.835V300H160.891V263.84H148.986V255.072H183.738Z"/>
<path d="M200.175 263.84V272.928H214.831V281.376H200.175V291.232H216.751V300H189.231V255.072H216.751V263.84H200.175Z"/>
<path d="M222 277.472C222 273.035 222.96 269.088 224.88 265.632C226.8 262.133 229.467 259.424 232.88 257.504C236.336 255.541 240.24 254.56 244.592 254.56C249.925 254.56 254.491 255.968 258.288 258.784C262.085 261.6 264.624 265.44 265.904 270.304H253.872C252.976 268.427 251.696 266.997 250.032 266.016C248.411 265.035 246.555 264.544 244.464 264.544C241.093 264.544 238.363 265.717 236.272 268.064C234.181 270.411 233.136 273.547 233.136 277.472C233.136 281.397 234.181 284.533 236.272 286.88C238.363 289.227 241.093 290.4 244.464 290.4C246.555 290.4 248.411 289.909 250.032 288.928C251.696 287.947 252.976 286.517 253.872 284.64H265.904C264.624 289.504 262.085 293.344 258.288 296.16C254.491 298.933 249.925 300.32 244.592 300.32C240.24 300.32 236.336 299.36 232.88 297.44C229.467 295.477 226.8 292.768 224.88 289.312C222.96 285.856 222 281.909 222 277.472Z"/>
<path d="M311.518 255.072V300H300.574V281.504H283.55V300H272.606V255.072H283.55V272.672H300.574V255.072H311.518Z"/>
<path d="M257.669 104C257.669 159.228 212.898 204 157.669 204C102.441 204 57.6693 159.228 57.6693 104C57.6693 48.7715 102.441 4 157.669 4C212.898 4 257.669 48.7715 257.669 104Z"/>
<path d="M162.294 80.125V66.5H216.419V80.125H196.419V154H182.419V80.125H162.294Z"/>
<path d="M102.669 131.375V89.25C102.669 85.5833 103.836 81.7917 106.169 77.875C110.919 69.875 118.003 65.875 127.419 65.875V79.75C124.419 79.8333 121.836 80.8333 119.669 82.75C117.586 84.8333 116.544 87 116.544 89.25V131.375C116.544 132.125 116.794 133.083 117.294 134.25C119.128 138.583 122.503 140.75 127.419 140.75V154.625C119.336 154.542 112.878 151.5 108.044 145.5C104.461 140.917 102.669 136.208 102.669 131.375ZM133.794 154.625V140.75L135.544 140.375C136.794 140.125 138.169 139.458 139.669 138.375C141.169 137.292 142.253 135.917 142.919 134.25C143.336 133 143.544 131.5 143.544 129.75C143.628 129.5 143.669 128.917 143.669 128L157.169 131.25C157.169 137.083 155.086 142.292 150.919 146.875C146.086 152.042 140.378 154.625 133.794 154.625ZM133.794 79.75V65.875C139.294 65.875 144.419 68.0417 149.169 72.375C154.503 77.375 157.169 83.0833 157.169 89.5L143.544 93V91.125C143.544 89.5417 143.336 88.125 142.919 86.875C141.836 84.2083 139.878 82.1667 137.044 80.75C134.878 80.0833 133.794 79.75 133.794 79.75Z"/>
</mask>
<path d="M4 277.472C4 273.035 4.96 269.088 6.88 265.632C8.8 262.133 11.4667 259.424 14.88 257.504C18.336 255.541 22.24 254.56 26.592 254.56C31.9253 254.56 36.4907 255.968 40.288 258.784C44.0853 261.6 46.624 265.44 47.904 270.304H35.872C34.976 268.427 33.696 266.997 32.032 266.016C30.4107 265.035 28.5547 264.544 26.464 264.544C23.0933 264.544 20.3627 265.717 18.272 268.064C16.1813 270.411 15.136 273.547 15.136 277.472C15.136 281.397 16.1813 284.533 18.272 286.88C20.3627 289.227 23.0933 290.4 26.464 290.4C28.5547 290.4 30.4107 289.909 32.032 288.928C33.696 287.947 34.976 286.517 35.872 284.64H47.904C46.624 289.504 44.0853 293.344 40.288 296.16C36.4907 298.933 31.9253 300.32 26.592 300.32C22.24 300.32 18.336 299.36 14.88 297.44C11.4667 295.477 8.8 292.768 6.88 289.312C4.96 285.856 4 281.909 4 277.472Z" fill="black"/>
<path d="M75.854 300.448C71.63 300.448 67.7473 299.467 64.206 297.504C60.7073 295.541 57.9127 292.811 55.822 289.312C53.774 285.771 52.75 281.803 52.75 277.408C52.75 273.013 53.774 269.067 55.822 265.568C57.9127 262.069 60.7073 259.339 64.206 257.376C67.7473 255.413 71.63 254.432 75.854 254.432C80.078 254.432 83.9393 255.413 87.438 257.376C90.9793 259.339 93.7527 262.069 95.758 265.568C97.806 269.067 98.83 273.013 98.83 277.408C98.83 281.803 97.806 285.771 95.758 289.312C93.71 292.811 90.9367 295.541 87.438 297.504C83.9393 299.467 80.078 300.448 75.854 300.448ZM75.854 290.464C79.438 290.464 82.2967 289.269 84.43 286.88C86.606 284.491 87.694 281.333 87.694 277.408C87.694 273.44 86.606 270.283 84.43 267.936C82.2967 265.547 79.438 264.352 75.854 264.352C72.2273 264.352 69.326 265.525 67.15 267.872C65.0167 270.219 63.95 273.397 63.95 277.408C63.95 281.376 65.0167 284.555 67.15 286.944C69.326 289.291 72.2273 290.464 75.854 290.464Z" fill="black"/>
<path d="M121.751 255.072C126.487 255.072 130.625 256.011 134.167 257.888C137.708 259.765 140.439 262.411 142.359 265.824C144.321 269.195 145.303 273.099 145.303 277.536C145.303 281.931 144.321 285.835 142.359 289.248C140.439 292.661 137.686 295.307 134.102 297.184C130.561 299.061 126.444 300 121.751 300H104.919V255.072H121.751ZM121.047 290.528C125.185 290.528 128.407 289.397 130.711 287.136C133.015 284.875 134.167 281.675 134.167 277.536C134.167 273.397 133.015 270.176 130.711 267.872C128.407 265.568 125.185 264.416 121.047 264.416H115.863V290.528H121.047Z" fill="black"/>
<path d="M183.738 255.072V263.84H171.835V300H160.891V263.84H148.986V255.072H183.738Z" fill="#FF6F00"/>
<path d="M200.175 263.84V272.928H214.831V281.376H200.175V291.232H216.751V300H189.231V255.072H216.751V263.84H200.175Z" fill="#FF6F00"/>
<path d="M222 277.472C222 273.035 222.96 269.088 224.88 265.632C226.8 262.133 229.467 259.424 232.88 257.504C236.336 255.541 240.24 254.56 244.592 254.56C249.925 254.56 254.491 255.968 258.288 258.784C262.085 261.6 264.624 265.44 265.904 270.304H253.872C252.976 268.427 251.696 266.997 250.032 266.016C248.411 265.035 246.555 264.544 244.464 264.544C241.093 264.544 238.363 265.717 236.272 268.064C234.181 270.411 233.136 273.547 233.136 277.472C233.136 281.397 234.181 284.533 236.272 286.88C238.363 289.227 241.093 290.4 244.464 290.4C246.555 290.4 248.411 289.909 250.032 288.928C251.696 287.947 252.976 286.517 253.872 284.64H265.904C264.624 289.504 262.085 293.344 258.288 296.16C254.491 298.933 249.925 300.32 244.592 300.32C240.24 300.32 236.336 299.36 232.88 297.44C229.467 295.477 226.8 292.768 224.88 289.312C222.96 285.856 222 281.909 222 277.472Z" fill="#FF6F00"/>
<path d="M311.518 255.072V300H300.574V281.504H283.55V300H272.606V255.072H283.55V272.672H300.574V255.072H311.518Z" fill="#FF6F00"/>
<path d="M257.669 104C257.669 159.228 212.898 204 157.669 204C102.441 204 57.6693 159.228 57.6693 104C57.6693 48.7715 102.441 4 157.669 4C212.898 4 257.669 48.7715 257.669 104Z" fill="#AFADAD"/>
<path d="M162.294 80.125V66.5H216.419V80.125H196.419V154H182.419V80.125H162.294Z" fill="#FF6F00"/>
<path d="M102.669 131.375V89.25C102.669 85.5833 103.836 81.7917 106.169 77.875C110.919 69.875 118.003 65.875 127.419 65.875V79.75C124.419 79.8333 121.836 80.8333 119.669 82.75C117.586 84.8333 116.544 87 116.544 89.25V131.375C116.544 132.125 116.794 133.083 117.294 134.25C119.128 138.583 122.503 140.75 127.419 140.75V154.625C119.336 154.542 112.878 151.5 108.044 145.5C104.461 140.917 102.669 136.208 102.669 131.375ZM133.794 154.625V140.75L135.544 140.375C136.794 140.125 138.169 139.458 139.669 138.375C141.169 137.292 142.253 135.917 142.919 134.25C143.336 133 143.544 131.5 143.544 129.75C143.628 129.5 143.669 128.917 143.669 128L157.169 131.25C157.169 137.083 155.086 142.292 150.919 146.875C146.086 152.042 140.378 154.625 133.794 154.625ZM133.794 79.75V65.875C139.294 65.875 144.419 68.0417 149.169 72.375C154.503 77.375 157.169 83.0833 157.169 89.5L143.544 93V91.125C143.544 89.5417 143.336 88.125 142.919 86.875C141.836 84.2083 139.878 82.1667 137.044 80.75C134.878 80.0833 133.794 79.75 133.794 79.75Z" fill="black"/>
<path d="M4 277.472C4 273.035 4.96 269.088 6.88 265.632C8.8 262.133 11.4667 259.424 14.88 257.504C18.336 255.541 22.24 254.56 26.592 254.56C31.9253 254.56 36.4907 255.968 40.288 258.784C44.0853 261.6 46.624 265.44 47.904 270.304H35.872C34.976 268.427 33.696 266.997 32.032 266.016C30.4107 265.035 28.5547 264.544 26.464 264.544C23.0933 264.544 20.3627 265.717 18.272 268.064C16.1813 270.411 15.136 273.547 15.136 277.472C15.136 281.397 16.1813 284.533 18.272 286.88C20.3627 289.227 23.0933 290.4 26.464 290.4C28.5547 290.4 30.4107 289.909 32.032 288.928C33.696 287.947 34.976 286.517 35.872 284.64H47.904C46.624 289.504 44.0853 293.344 40.288 296.16C36.4907 298.933 31.9253 300.32 26.592 300.32C22.24 300.32 18.336 299.36 14.88 297.44C11.4667 295.477 8.8 292.768 6.88 289.312C4.96 285.856 4 281.909 4 277.472Z" stroke="white" stroke-width="8" mask="url(#path-1-outside-1_5_727)"/>
<path d="M75.854 300.448C71.63 300.448 67.7473 299.467 64.206 297.504C60.7073 295.541 57.9127 292.811 55.822 289.312C53.774 285.771 52.75 281.803 52.75 277.408C52.75 273.013 53.774 269.067 55.822 265.568C57.9127 262.069 60.7073 259.339 64.206 257.376C67.7473 255.413 71.63 254.432 75.854 254.432C80.078 254.432 83.9393 255.413 87.438 257.376C90.9793 259.339 93.7527 262.069 95.758 265.568C97.806 269.067 98.83 273.013 98.83 277.408C98.83 281.803 97.806 285.771 95.758 289.312C93.71 292.811 90.9367 295.541 87.438 297.504C83.9393 299.467 80.078 300.448 75.854 300.448ZM75.854 290.464C79.438 290.464 82.2967 289.269 84.43 286.88C86.606 284.491 87.694 281.333 87.694 277.408C87.694 273.44 86.606 270.283 84.43 267.936C82.2967 265.547 79.438 264.352 75.854 264.352C72.2273 264.352 69.326 265.525 67.15 267.872C65.0167 270.219 63.95 273.397 63.95 277.408C63.95 281.376 65.0167 284.555 67.15 286.944C69.326 289.291 72.2273 290.464 75.854 290.464Z" stroke="white" stroke-width="8" mask="url(#path-1-outside-1_5_727)"/>
<path d="M121.751 255.072C126.487 255.072 130.625 256.011 134.167 257.888C137.708 259.765 140.439 262.411 142.359 265.824C144.321 269.195 145.303 273.099 145.303 277.536C145.303 281.931 144.321 285.835 142.359 289.248C140.439 292.661 137.686 295.307 134.102 297.184C130.561 299.061 126.444 300 121.751 300H104.919V255.072H121.751ZM121.047 290.528C125.185 290.528 128.407 289.397 130.711 287.136C133.015 284.875 134.167 281.675 134.167 277.536C134.167 273.397 133.015 270.176 130.711 267.872C128.407 265.568 125.185 264.416 121.047 264.416H115.863V290.528H121.047Z" stroke="white" stroke-width="8" mask="url(#path-1-outside-1_5_727)"/>
<path d="M183.738 255.072V263.84H171.835V300H160.891V263.84H148.986V255.072H183.738Z" stroke="white" stroke-width="8" mask="url(#path-1-outside-1_5_727)"/>
<path d="M200.175 263.84V272.928H214.831V281.376H200.175V291.232H216.751V300H189.231V255.072H216.751V263.84H200.175Z" stroke="white" stroke-width="8" mask="url(#path-1-outside-1_5_727)"/>
<path d="M222 277.472C222 273.035 222.96 269.088 224.88 265.632C226.8 262.133 229.467 259.424 232.88 257.504C236.336 255.541 240.24 254.56 244.592 254.56C249.925 254.56 254.491 255.968 258.288 258.784C262.085 261.6 264.624 265.44 265.904 270.304H253.872C252.976 268.427 251.696 266.997 250.032 266.016C248.411 265.035 246.555 264.544 244.464 264.544C241.093 264.544 238.363 265.717 236.272 268.064C234.181 270.411 233.136 273.547 233.136 277.472C233.136 281.397 234.181 284.533 236.272 286.88C238.363 289.227 241.093 290.4 244.464 290.4C246.555 290.4 248.411 289.909 250.032 288.928C251.696 287.947 252.976 286.517 253.872 284.64H265.904C264.624 289.504 262.085 293.344 258.288 296.16C254.491 298.933 249.925 300.32 244.592 300.32C240.24 300.32 236.336 299.36 232.88 297.44C229.467 295.477 226.8 292.768 224.88 289.312C222.96 285.856 222 281.909 222 277.472Z" stroke="white" stroke-width="8" mask="url(#path-1-outside-1_5_727)"/>
<path d="M311.518 255.072V300H300.574V281.504H283.55V300H272.606V255.072H283.55V272.672H300.574V255.072H311.518Z" stroke="white" stroke-width="8" mask="url(#path-1-outside-1_5_727)"/>
<path d="M257.669 104C257.669 159.228 212.898 204 157.669 204C102.441 204 57.6693 159.228 57.6693 104C57.6693 48.7715 102.441 4 157.669 4C212.898 4 257.669 48.7715 257.669 104Z" stroke="white" stroke-width="8" mask="url(#path-1-outside-1_5_727)"/>
<path d="M162.294 80.125V66.5H216.419V80.125H196.419V154H182.419V80.125H162.294Z" stroke="white" stroke-width="8" mask="url(#path-1-outside-1_5_727)"/>
<path d="M102.669 131.375V89.25C102.669 85.5833 103.836 81.7917 106.169 77.875C110.919 69.875 118.003 65.875 127.419 65.875V79.75C124.419 79.8333 121.836 80.8333 119.669 82.75C117.586 84.8333 116.544 87 116.544 89.25V131.375C116.544 132.125 116.794 133.083 117.294 134.25C119.128 138.583 122.503 140.75 127.419 140.75V154.625C119.336 154.542 112.878 151.5 108.044 145.5C104.461 140.917 102.669 136.208 102.669 131.375ZM133.794 154.625V140.75L135.544 140.375C136.794 140.125 138.169 139.458 139.669 138.375C141.169 137.292 142.253 135.917 142.919 134.25C143.336 133 143.544 131.5 143.544 129.75C143.628 129.5 143.669 128.917 143.669 128L157.169 131.25C157.169 137.083 155.086 142.292 150.919 146.875C146.086 152.042 140.378 154.625 133.794 154.625ZM133.794 79.75V65.875C139.294 65.875 144.419 68.0417 149.169 72.375C154.503 77.375 157.169 83.0833 157.169 89.5L143.544 93V91.125C143.544 89.5417 143.336 88.125 142.919 86.875C141.836 84.2083 139.878 82.1667 137.044 80.75C134.878 80.0833 133.794 79.75 133.794 79.75Z" stroke="white" stroke-width="8" mask="url(#path-1-outside-1_5_727)"/>
</svg>
